<svg id="iconfinder_353439_basket_purse_shopping_cart_ecommerce_icon" xmlns="http://www.w3.org/2000/svg" width="35" height="35" viewBox="0 0 35 35">
  <path id="Path_13" data-name="Path 13" d="M23.192,22.674a1.459,1.459,0,0,0,1.458-1.458V15.529a4.612,4.612,0,1,1,9.223,0v5.688a1.458,1.458,0,0,0,2.917,0V15.529a7.528,7.528,0,1,0-15.057,0v5.688A1.459,1.459,0,0,0,23.192,22.674Z" transform="translate(-11.719 -8)" fill="#e42329"/>
  <path id="Path_14" data-name="Path 14" d="M42.629,23.631H34.82V25.45a2.943,2.943,0,0,1-5.885,0V23.631H22.573V25.45a2.943,2.943,0,0,1-5.885,0V23.631h-7.9a.546.546,0,0,0-.561.708l5.148,20.779a3.013,3.013,0,0,0,2.769,2.115H35.273a3.015,3.015,0,0,0,2.77-2.115l5.146-20.779A.546.546,0,0,0,42.629,23.631Z" transform="translate(-8.21 -12.233)" fill="#e42329"/>
</svg>
