<svg xmlns="http://www.w3.org/2000/svg" width="35.833" height="34.042" viewBox="0 0 35.833 34.042">
  <path id="Vector" d="M32.25,7.167H26.875V3.583A3.582,3.582,0,0,0,23.292,0H12.542A3.582,3.582,0,0,0,8.958,3.583V7.167H3.583A3.582,3.582,0,0,0,0,10.75V30.458a3.582,3.582,0,0,0,3.583,3.583H32.25a3.582,3.582,0,0,0,3.583-3.583V10.75A3.582,3.582,0,0,0,32.25,7.167ZM12.542,3.583h10.75V7.167H12.542ZM32.25,30.458H3.583V26.875H32.25Zm0-8.958H3.583V10.75H8.958v3.583h3.583V10.75h10.75v3.583h3.583V10.75H32.25Z" fill="#fff"/>
</svg>
