<svg id="Group_2" data-name="Group 2" xmlns="http://www.w3.org/2000/svg" width="36" height="35" viewBox="0 0 36 35">
  <path id="Path_15" data-name="Path 15" d="M23.465,3.546a.778.778,0,0,0,.332-.289.767.767,0,0,0-.01-.84.779.779,0,0,0-.339-.281L18.792.129a1.574,1.574,0,0,0-1.249,0L3.386,6.228a.779.779,0,0,0-.343.288.767.767,0,0,0,.007.853.779.779,0,0,0,.347.282l5.55,2.291a.787.787,0,0,0,.624-.012Z" transform="translate(0.083)" fill="#e42329"/>
  <path id="Path_16" data-name="Path 16" d="M19.444,33.952a.813.813,0,0,0,.1.382.792.792,0,0,0,.263.289.766.766,0,0,0,.746.055l13.982-6.5a1.572,1.572,0,0,0,.667-.59,1.623,1.623,0,0,0,.248-.865V9.55a.813.813,0,0,0-.095-.383.791.791,0,0,0-.263-.289.766.766,0,0,0-.746-.056L19.9,15.536a.786.786,0,0,0-.333.294.811.811,0,0,0-.124.432ZM27.093,19.2a.768.768,0,0,1,1.1,0l2.341,2.4a.8.8,0,0,1,.213.408.816.816,0,0,1-.044.461.8.8,0,0,1-.287.358.768.768,0,0,1-.433.135H28.817v3.194a1.212,1.212,0,0,1-.343.847,1.152,1.152,0,0,1-1.656,0,1.212,1.212,0,0,1-.343-.847V22.961H25.3a.768.768,0,0,1-.433-.134.8.8,0,0,1-.287-.358.815.815,0,0,1-.045-.461.8.8,0,0,1,.213-.409Z" transform="translate(0.556 0.25)" fill="#e42329"/>
  <path id="Path_17" data-name="Path 17" d="M11.883,13.268a.805.805,0,0,0-.75.071.8.8,0,0,0-.262.286.788.788,0,0,0-.095.375v2.59a1.186,1.186,0,0,1-.352.842,1.206,1.206,0,0,1-1.7,0,1.186,1.186,0,0,1-.351-.842V12.347a.79.79,0,0,0-.134-.441.8.8,0,0,0-.358-.293l-6.776-2.8a.805.805,0,0,0-.751.073A.792.792,0,0,0,0,9.544v17.1a1.579,1.579,0,0,0,.268.881,1.6,1.6,0,0,0,.716.585l15.909,6.577a.805.805,0,0,0,.75-.071A.792.792,0,0,0,18,33.957V16.332a.79.79,0,0,0-.134-.441.8.8,0,0,0-.358-.293Z" transform="translate(0 0.25)" fill="#e42329"/>
  <path id="Path_18" data-name="Path 18" d="M17.859,13.829a.763.763,0,0,0,.619-.011L32.185,7.5a.777.777,0,0,0,.332-.292.793.793,0,0,0-.007-.855.776.776,0,0,0-.337-.286L27.39,3.958a.763.763,0,0,0-.634,0L13.087,10.392a.776.776,0,0,0-.33.3.793.793,0,0,0,.017.856.775.775,0,0,0,.342.282Z" transform="translate(0.361 0.111)" fill="#e42329"/>
</svg>
